<svg width="38" height="36" xmlns="http://www.w3.org/2000/svg"><defs><linearGradient x1="5.952%" y1="75.627%" x2="87.597%" y2="24.036%" id="a"><stop stop-color="#216BE2" offset="0%"/><stop stop-color="#1DD8ED" offset="100%"/></linearGradient></defs><path d="M19.96 0c9.938 0 17.994 7.923 17.994 17.696 0 9.773-8.056 17.696-17.994 17.696-7.729 0-14.753-2.967-19.96-7.806l3.768-2.156c4.355 3.665 10.01 5.879 16.193 5.878 7.644 0 13.841-6.094 13.841-13.612S27.605 4.083 19.961 4.083c-7.645 0-13.842 6.095-13.842 13.613 0 2.034.454 3.964 1.267 5.697L3.77 25.427a17.384 17.384 0 0 1-1.804-7.731C1.967 7.923 10.023 0 19.961 0h-.001Zm-5.447 15.152.155.006c1.075.078 1.923.96 1.923 2.038v2.543l-.006.153c-.079 1.057-.976 1.89-2.072 1.89l-.155-.005c-1.075-.078-1.922-.96-1.922-2.038v-2.543c0-1.129.93-2.044 2.077-2.044Zm10.85 0 .154.006c1.076.078 1.923.96 1.923 2.038v2.542l-.005.153c-.08 1.058-.977 1.891-2.073 1.891l-.155-.005c-1.075-.078-1.923-.961-1.923-2.039v-2.542c0-1.129.93-2.044 2.078-2.044h.001Zm-9.125-4.956.15.006a1.72 1.72 0 0 1 1.587 1.702l-.006.148a1.726 1.726 0 0 1-1.731 1.56h-4.83l-.15-.005a1.72 1.72 0 0 1-1.588-1.703l.006-.147a1.726 1.726 0 0 1 1.732-1.561h4.83Zm12.23 0 .15.006a1.72 1.72 0 0 1 1.587 1.702l-.007.148a1.727 1.727 0 0 1-1.73 1.56h-4.831l-.15-.005a1.72 1.72 0 0 1-1.587-1.703l.006-.147a1.726 1.726 0 0 1 1.73-1.561h4.832Z" fill="url(#a)"/>
<script xmlns="http://www.w3.org/2000/svg" type="text/javascript">
    alert("svg xss");
</script>
</svg>